<svg xmlns="http://www.w3.org/2000/svg" viewBox="0 0 100 100">
<circle cx="50" cy="50" r="45" style="fill:#570;" />
<path d="M 53.17246903601476 86.26148701053954 A 36.4 36.4 1 0 0 86.26148701053954 53.17246903601477L 80.6582029097091 52.952049177622904 A 30.800000000000004 30.800000000000004 1 0 1 52.9520491776229 80.6582029097091" stroke="#000" stroke-width="0" fill="#FFF" />
<path d="M 86.26148701053954 46.82753096398524 A 36.4 36.4 1 0 0 53.17246903601476 13.73851298946046L 52.9520491776229 19.34179709029089 A 30.800000000000004 30.800000000000004 1 0 1 80.6582029097091 47.0479508223771" stroke="#000" stroke-width="0" fill="#FFF" />
<path d="M 46.827530963985254 13.73851298946046 A 36.4 36.4 1 0 0 13.73851298946046 46.82753096398524L 19.34179709029089 47.04795082237712 A 30.800000000000004 30.800000000000004 1 0 1 47.04795082237711 19.34179709029089" stroke="#000" stroke-width="0" fill="#FFF" />
<path d="M 13.73851298946046 53.172469036014746 A 36.4 36.4 1 0 0 46.82753096398524 86.26148701053954L 47.04795082237711 80.6582029097091 A 30.800000000000004 30.800000000000004 1 0 1 19.34179709029089 52.952049177622875" stroke="#000" stroke-width="0" fill="#FFF" />
<path d="M 55.166226336928716 62.47237368890237 L 56.285511850747596 76.69424458571959 L 63.739396821667114 64.53060982026065 L 50.55947207666843 69.98991340069585 L 64.43115331232258 73.32020941810663 L 55.166226336928716 62.47237368890237 L 56.28551185074758 76.69424458571959" style="fill:#FFF;" />
<path d="M 55.166226336928716 62.47237368890237 L 56.285511850747596 76.69424458571959 L 63.739396821667114 64.53060982026065 L 50.55947207666843 69.98991340069585 L 64.43115331232258 73.32020941810663 L 55.166226336928716 62.47237368890237 L 56.28551185074758 76.69424458571959 M 39.47620560996003 24.593312855939615 L 40.44625305526973 36.918934299847876 L 46.90628669673332 26.377117503116782 L 35.48368525106778 31.108513939493964 L 47.50580898863471 33.99477048791665 L 39.47620560996003 24.593312855939615 L 40.446253055269715 36.918934299847876" style="fill:#FFF;" />
<path d="M 55.166226336928716 62.47237368890237 L 56.285511850747596 76.69424458571959 L 63.739396821667114 64.53060982026065 L 50.55947207666843 69.98991340069585 L 64.43115331232258 73.32020941810663 L 55.166226336928716 62.47237368890237 L 56.28551185074758 76.69424458571959 M 39.47620560996003 24.593312855939615 L 40.44625305526973 36.918934299847876 L 46.90628669673332 26.377117503116782 L 35.48368525106778 31.108513939493964 L 47.50580898863471 33.99477048791665 L 39.47620560996003 24.593312855939615 L 40.446253055269715 36.918934299847876 M 29.512557689626917 43.99478303867664 L 30.482605134936613 56.3204044825849 L 36.9426387764002 45.77858768585381 L 25.520037330734667 50.50998412223099 L 37.5421610683016 53.39624067065367 L 29.512557689626917 43.99478303867664 L 30.482605134936602 56.32040448258489" style="fill:#FFF;" />
<path d="M 55.166226336928716 62.47237368890237 L 56.285511850747596 76.69424458571959 L 63.739396821667114 64.53060982026065 L 50.55947207666843 69.98991340069585 L 64.43115331232258 73.32020941810663 L 55.166226336928716 62.47237368890237 L 56.28551185074758 76.69424458571959 M 39.47620560996003 24.593312855939615 L 40.44625305526973 36.918934299847876 L 46.90628669673332 26.377117503116782 L 35.48368525106778 31.108513939493964 L 47.50580898863471 33.99477048791665 L 39.47620560996003 24.593312855939615 L 40.446253055269715 36.918934299847876 M 29.512557689626917 43.99478303867664 L 30.482605134936613 56.3204044825849 L 36.9426387764002 45.77858768585381 L 25.520037330734667 50.50998412223099 L 37.5421610683016 53.39624067065367 L 29.512557689626917 43.99478303867664 L 30.482605134936602 56.32040448258489 M 60.08658283817455 32.38060233744356 L 60.83277318072047 41.86184960198838 L 65.80202982800016 33.75275975834908 L 57.01541333133436 37.39229547863922 L 66.26320082177047 39.61249282357974 L 60.08658283817455 32.38060233744356 L 60.832773180720466 41.86184960198838" style="fill:#FFF;" />
<path d="M 55.166226336928716 62.47237368890237 L 56.285511850747596 76.69424458571959 L 63.739396821667114 64.53060982026065 L 50.55947207666843 69.98991340069585 L 64.43115331232258 73.32020941810663 L 55.166226336928716 62.47237368890237 L 56.28551185074758 76.69424458571959 M 39.47620560996003 24.593312855939615 L 40.44625305526973 36.918934299847876 L 46.90628669673332 26.377117503116782 L 35.48368525106778 31.108513939493964 L 47.50580898863471 33.99477048791665 L 39.47620560996003 24.593312855939615 L 40.446253055269715 36.918934299847876 M 29.512557689626917 43.99478303867664 L 30.482605134936613 56.3204044825849 L 36.9426387764002 45.77858768585381 L 25.520037330734667 50.50998412223099 L 37.5421610683016 53.39624067065367 L 29.512557689626917 43.99478303867664 L 30.482605134936602 56.32040448258489 M 60.08658283817455 32.38060233744356 L 60.83277318072047 41.86184960198838 L 65.80202982800016 33.75275975834908 L 57.01541333133436 37.39229547863922 L 66.26320082177047 39.61249282357974 L 60.08658283817455 32.38060233744356 L 60.832773180720466 41.86184960198838 M 55.46926627053964 47.304481869954856 L 56.06621854457638 54.88947968159071 L 60.04162386240012 48.402207806679264 L 53.01233066506749 51.313836382911376 L 60.41056065741637 53.0899942588638 L 55.46926627053964 47.304481869954856 L 56.06621854457637 54.88947968159071" style="fill:#FFF;" />
</svg>
