<svg xmlns="http://www.w3.org/2000/svg" viewBox="0 0 100 100">
<circle cx="50" cy="50" r="40" style="fill:#007;" />
<circle cx="50" cy="50" r="26.7" style="fill:#FFF;" />
<path d="m 300.1996,124.30004 28.4309,53.05784
  c 3.2267,5.7664 9.0097,5.23244 14.791,2.01172
  l 20.5879,-10.66602 -15.3438,81.49414
  c -3.2267,14.88855 7.1253,14.88873 12.2344,8.45118
  l 35.9297,-40.23633 5.8301,20.43359
  c 0.6726,2.68329 3.6314,5.50122 8.0683,4.83008
  l 45.4317,-9.55469 -11.9317,43.39844
  c -2.5545,9.65697 -4.5479,13.65613 2.5782,16.20313
  l 16.1933,7.61328 -78.207,63.55078
  c -3.0955,2.40288 -4.6626,6.72735 -3.5606,10.64258
  l 6.8457,22.4707
  c -26.9284,-3.10519 -51.056,-7.77715 -77.998,-10.6543 -2.3784,-0.25399 -6.36,3.67241 -6.3437,6.42969
  l 3.5736,82.32415 -14.2196,0 3.5737,-82.32415
  c 0.016,-2.75728 -3.9653,-6.68368 -6.3438,-6.42969 -26.942,2.87715 -51.0696,7.54911 -77.998,10.6543
  l 6.8457,-22.4707
  c 1.102,-3.91523 -0.465,-8.2397 -3.5606,-10.64258
  L 137.4,301.3364
  l 16.1934,-7.61328
  c 7.1261,-2.547 5.1327,-6.54616 2.5781,-16.20313
  l -11.9316,-43.39844 45.4316,9.55469
  c 4.4369,0.67114 7.3957,-2.14679 8.0684,-4.83008
  l 5.83,-20.43359 35.9297,40.23633
  c 5.1092,6.43755 15.4611,6.43737 12.2344,-8.45118
  l -15.3438,-81.49414 20.5879,10.66602
  c 5.7814,3.22072 11.5643,3.75468 14.7911,-2.01172 z" style="fill: #D00;" transform="translate(11, 11) scale(0.13, 0.13)" />
</svg>
