<svg xmlns="http://www.w3.org/2000/svg" viewBox="0 0 100 100">
<path d="M 50.0 8.0 L 40.007650711027956 38.2467110956259 L 50 50 L 59.992349288972044 38.2467110956259" style="fill:#DE2119;" />
<path d="M 8.153513283013247 38.40325224750231 L 33.83203922298239 57.2532889043741 L 50 50 L 40.007650711027956 38.2467110956259" style="fill:#FFC500;" />
<path d="M 24.137448899131176 87.59674775249769 L 50.0 69.0 L 50 50 L 33.83203922298239 57.2532889043741" style="fill:#08639C;" />
<path d="M 75.86255110086881 87.59674775249769 L 66.16796077701761 57.25328890437411 L 50 50 L 50.0 69.0" style="fill:#FFF;" />
<path d="M 91.84648671698676 38.40325224750232 L 59.99234928897205 38.2467110956259 L 50 50 L 66.16796077701761 57.25328890437411" style="fill:#000;" />
<path d="M 50.0 8.0 L 40.007650711027956 38.2467110956259 L 50 50 L 59.992349288972044 38.2467110956259 L 50.0 8.0" style="fill:rgba(0,0,0,0);stroke-width:2;stroke:#000;" />
<path d="M 8.153513283013247 38.40325224750231 L 33.83203922298239 57.2532889043741 L 50 50 L 40.007650711027956 38.2467110956259 L 8.153513283013247 38.40325224750231" style="fill:rgba(0,0,0,0);stroke-width:2;stroke:#000;" />
<path d="M 24.137448899131176 87.59674775249769 L 50.0 69.0 L 50 50 L 33.83203922298239 57.2532889043741 L 24.137448899131176 87.59674775249769" style="fill:rgba(0,0,0,0);stroke-width:2;stroke:#000;" />
<path d="M 75.86255110086881 87.59674775249769 L 66.16796077701761 57.25328890437411 L 50 50 L 50.0 69.0 L 75.86255110086881 87.59674775249769" style="fill:rgba(0,0,0,0);stroke-width:2;stroke:#000;" />
<path d="M 91.84648671698676 38.40325224750232 L 59.99234928897205 38.2467110956259 L 50 50 L 66.16796077701761 57.25328890437411 L 91.84648671698676 38.40325224750232" style="fill:rgba(0,0,0,0);stroke-width:2;stroke:#000;" />
</svg>
