<svg xmlns="http://www.w3.org/2000/svg" viewBox="0 0 100 100">
<circle cx="50" cy="50" r="40" style="fill:#D00;" />
<circle cx="50" cy="50" r="32.0" style="fill:#007;" />
<path d="M 50.0 80.4 L 54.14110472164033 65.4548132206251 L 65.2 76.32717227504693 L 61.31370849898476 61.31370849898476 L 76.32717227504693 65.2 L 65.4548132206251 54.14110472164033 L 80.4 50.0 L 65.4548132206251 45.85889527835967 L 76.32717227504693 34.800000000000004 L 61.31370849898476 38.68629150101524 L 65.2 23.672827724953063 L 54.14110472164034 34.54518677937491 L 50.00000000000001 19.599999999999998 L 45.858895278359675 34.5451867793749 L 34.8 23.672827724953066 L 38.68629150101524 38.68629150101523 L 23.67282772495307 34.79999999999998 L 34.54518677937491 45.85889527835967 L 19.599999999999998 49.99999999999999 L 34.5451867793749 54.141104721640325 L 23.672827724953066 65.2 L 38.68629150101523 61.31370849898476 L 34.79999999999998 76.32717227504693 L 45.85889527835967 65.4548132206251 L 49.99999999999999 80.4 L 54.14110472164034 65.45481322062508" style="fill:#FFF;" />
<circle cx="50" cy="50" r="17.6" style="fill:#007;" />
<circle cx="50" cy="50" r="15.200000000000001" style="fill:#FFF;" />
</svg>
