<svg xmlns="http://www.w3.org/2000/svg" viewBox="0 0 100 100">
<circle cx="50" cy="50" r="40" style="fill:#007;" />
<path d="M 50.0 88.0 L 55.17638090205041 69.31851652578136 L 69.0 82.90896534380867 L 64.14213562373095 64.14213562373095 L 82.90896534380866 69.0 L 69.31851652578136 55.17638090205041 L 88.0 50.0 L 69.31851652578136 44.82361909794958 L 82.90896534380867 31.000000000000007 L 64.14213562373095 35.85786437626905 L 69.0 17.091034656191326 L 55.17638090205042 30.681483474218638 L 50.00000000000001 12.0 L 44.823619097949596 30.68148347421863 L 30.999999999999996 17.091034656191333 L 35.85786437626905 35.85786437626905 L 17.09103465619134 30.999999999999982 L 30.681483474218634 44.82361909794959 L 12.0 49.99999999999999 L 30.68148347421863 55.176380902050404 L 17.091034656191333 69.0 L 35.85786437626905 64.14213562373095 L 30.999999999999982 82.90896534380866 L 44.82361909794959 69.31851652578136 L 49.99999999999999 88.0 L 55.176380902050425 69.31851652578136" style="fill:#FFF;" />
<circle cx="50" cy="50" r="22" style="fill:#007;" />
<circle cx="50" cy="50" r="19" style="fill:#FFF;" />
</svg>
