<svg xmlns="http://www.w3.org/2000/svg" viewBox="0 0 100 100">
<circle cx="50" cy="50" r="40" style="fill:#007;" />
<path d="M 50.0 86.0 L 53.90180644032257 69.61570560806462 L 63.77660356514323 83.25966317040633 L 61.11140466039204 66.62939224605091 L 75.45584412271572 75.45584412271572 L 66.62939224605091 61.11140466039205 L 83.25966317040633 63.77660356514323 L 69.61570560806462 53.90180644032257 L 86.0 50.0 L 69.61570560806462 46.09819355967743 L 83.25966317040633 36.22339643485677 L 66.62939224605091 38.88859533960796 L 75.45584412271572 24.54415587728429 L 61.11140466039204 33.370607753949095 L 63.77660356514323 16.74033682959368 L 53.901806440322574 30.38429439193539 L 50.00000000000001 14.0 L 46.09819355967743 30.38429439193539 L 36.223396434856774 16.740336829593673 L 38.88859533960796 33.37060775394909 L 24.54415587728429 24.544155877284282 L 33.370607753949095 38.88859533960796 L 16.740336829593687 36.223396434856745 L 30.384294391935395 46.098193559677426 L 14.0 49.99999999999999 L 30.38429439193539 53.90180644032257 L 16.74033682959368 63.77660356514324 L 33.37060775394909 61.11140466039204 L 24.544155877284282 75.4558441227157 L 38.88859533960796 66.62939224605091 L 36.223396434856745 83.25966317040631 L 46.098193559677426 69.6157056080646 L 49.99999999999999 86.0 L 53.90180644032257 69.61570560806462" style="fill:#FFF;" />
<circle cx="50" cy="50" r="22" style="fill:#007;" />
<circle cx="50" cy="50" r="20" style="fill:#FFF;" />
</svg>
