<svg xmlns="http://www.w3.org/2000/svg" viewBox="0 0 100 100">
<path d="M 18.0 18.0 L 30.8 18.0 L 30.8 30.8 L 18.0 30.8 L 18.0 18.0" style="fill:#FFF;" />
<path d="M 18.0 30.8 L 30.8 30.8 L 30.8 43.6 L 18.0 43.6 L 18.0 30.8" style="fill:#D00;" />
<path d="M 18.0 43.6 L 30.8 43.6 L 30.8 56.400000000000006 L 18.0 56.400000000000006 L 18.0 43.6" style="fill:#FFF;" />
<path d="M 18.0 56.4 L 30.8 56.4 L 30.8 69.2 L 18.0 69.2 L 18.0 56.4" style="fill:#D00;" />
<path d="M 18.0 69.2 L 30.8 69.2 L 30.8 82.0 L 18.0 82.0 L 18.0 69.2" style="fill:#FFF;" />
<path d="M 30.8 18.0 L 43.6 18.0 L 43.6 30.8 L 30.8 30.8 L 30.8 18.0" style="fill:#D00;" />
<path d="M 30.8 30.8 L 43.6 30.8 L 43.6 43.6 L 30.8 43.6 L 30.8 30.8" style="fill:#FFF;" />
<path d="M 30.8 43.6 L 43.6 43.6 L 43.6 56.400000000000006 L 30.8 56.400000000000006 L 30.8 43.6" style="fill:#D00;" />
<path d="M 30.8 56.4 L 43.6 56.4 L 43.6 69.2 L 30.8 69.2 L 30.8 56.4" style="fill:#FFF;" />
<path d="M 30.8 69.2 L 43.6 69.2 L 43.6 82.0 L 30.8 82.0 L 30.8 69.2" style="fill:#D00;" />
<path d="M 43.6 18.0 L 56.400000000000006 18.0 L 56.400000000000006 30.8 L 43.6 30.8 L 43.6 18.0" style="fill:#FFF;" />
<path d="M 43.6 30.8 L 56.400000000000006 30.8 L 56.400000000000006 43.6 L 43.6 43.6 L 43.6 30.8" style="fill:#D00;" />
<path d="M 43.6 43.6 L 56.400000000000006 43.6 L 56.400000000000006 56.400000000000006 L 43.6 56.400000000000006 L 43.6 43.6" style="fill:#FFF;" />
<path d="M 43.6 56.4 L 56.400000000000006 56.4 L 56.400000000000006 69.2 L 43.6 69.2 L 43.6 56.4" style="fill:#D00;" />
<path d="M 43.6 69.2 L 56.400000000000006 69.2 L 56.400000000000006 82.0 L 43.6 82.0 L 43.6 69.2" style="fill:#FFF;" />
<path d="M 56.4 18.0 L 69.2 18.0 L 69.2 30.8 L 56.4 30.8 L 56.4 18.0" style="fill:#D00;" />
<path d="M 56.4 30.8 L 69.2 30.8 L 69.2 43.6 L 56.4 43.6 L 56.4 30.8" style="fill:#FFF;" />
<path d="M 56.4 43.6 L 69.2 43.6 L 69.2 56.400000000000006 L 56.4 56.400000000000006 L 56.4 43.6" style="fill:#D00;" />
<path d="M 56.4 56.4 L 69.2 56.4 L 69.2 69.2 L 56.4 69.2 L 56.4 56.4" style="fill:#FFF;" />
<path d="M 56.4 69.2 L 69.2 69.2 L 69.2 82.0 L 56.4 82.0 L 56.4 69.2" style="fill:#D00;" />
<path d="M 69.2 18.0 L 82.0 18.0 L 82.0 30.8 L 69.2 30.8 L 69.2 18.0" style="fill:#FFF;" />
<path d="M 69.2 30.8 L 82.0 30.8 L 82.0 43.6 L 69.2 43.6 L 69.2 30.8" style="fill:#D00;" />
<path d="M 69.2 43.6 L 82.0 43.6 L 82.0 56.400000000000006 L 69.2 56.400000000000006 L 69.2 43.6" style="fill:#FFF;" />
<path d="M 69.2 56.4 L 82.0 56.4 L 82.0 69.2 L 69.2 69.2 L 69.2 56.4" style="fill:#D00;" />
<path d="M 69.2 69.2 L 82.0 69.2 L 82.0 82.0 L 69.2 82.0 L 69.2 69.2" style="fill:#FFF;" />
</svg>
