<svg xmlns="http://www.w3.org/2000/svg" viewBox="0 0 100 100">
<path d="M 39.0 11.5 L 61.0 11.5 L 61.0 39.0 L 88.50000000000001 39.0 L 88.50000000000001 61.0 L 61.0 61.0 L 61.0 88.50000000000001 L 39.0 88.50000000000001 L 39.0 61.0 L 11.5 61.0 L 11.5 39.0 L 39.0 39.0 L 39.0 11.5" style="fill:#000;" />
<path d="M 11.5 41.2 L 41.2 41.2 L 41.2 11.5 L 32.400000000000006 11.5 L 32.400000000000006 32.400000000000006 L 11.5 32.400000000000006 L 11.5 41.2" style="fill:#FFF;" />
<path d="M 11.5 32.400000000000006 L 32.400000000000006 32.400000000000006 L 32.400000000000006 11.5" style="fill:rgba(0,0,0,0);stroke-width:2.5;stroke:#000;" />
<path d="M 88.50000000000001 58.800000000000004 L 58.800000000000004 58.800000000000004 L 58.800000000000004 88.50000000000001 L 67.60000000000001 88.50000000000001 L 67.60000000000001 67.60000000000001 L 88.50000000000001 67.60000000000001 L 88.50000000000001 58.800000000000004" style="fill:#FFF;" />
<path d="M 88.50000000000001 67.60000000000001 L 67.60000000000001 67.60000000000001 L 67.60000000000001 88.50000000000001" style="fill:rgba(0,0,0,0);stroke-width:2.5;stroke:#000;" />
<path d="M 11.5 58.800000000000004 L 41.2 58.800000000000004 L 41.2 88.50000000000001 L 32.400000000000006 88.50000000000001 L 32.400000000000006 67.60000000000001 L 11.5 67.60000000000001 L 11.5 58.800000000000004" style="fill:#FFF;" />
<path d="M 11.5 67.60000000000001 L 32.400000000000006 67.60000000000001 L 32.400000000000006 88.50000000000001" style="fill:rgba(0,0,0,0);stroke-width:2.5;stroke:#000;" />
<path d="M 88.50000000000001 41.2 L 58.800000000000004 41.2 L 58.800000000000004 11.5 L 67.60000000000001 11.5 L 67.60000000000001 32.400000000000006 L 88.50000000000001 32.400000000000006 L 88.50000000000001 41.2" style="fill:#FFF;" />
<path d="M 88.50000000000001 32.400000000000006 L 67.60000000000001 32.400000000000006 L 67.60000000000001 11.5" style="fill:rgba(0,0,0,0);stroke-width:2.5;stroke:#000;" />
</svg>
