<svg xmlns="http://www.w3.org/2000/svg" viewBox="0 0 100 100">
<path d="M 38.0 8.0 L 62.0 8.0 L 62.0 38.0 L 92.0 38.0 L 92.0 62.0 L 62.0 62.0 L 62.0 92.0 L 38.0 92.0 L 38.0 62.0 L 8.0 62.0 L 8.0 38.0 L 38.0 38.0 L 38.0 8.0" style="fill:#000;" />
<path d="M 8.0 40.4 L 40.4 40.4 L 40.4 8.0 L 30.799999999999997 8.0 L 30.799999999999997 30.799999999999997 L 8.0 30.799999999999997 L 8.0 40.4" style="fill:#FFF;" />
<path d="M 92.0 59.599999999999994 L 59.599999999999994 59.599999999999994 L 59.599999999999994 92.0 L 69.2 92.0 L 69.2 69.2 L 92.0 69.2 L 92.0 59.599999999999994" style="fill:#FFF;" />
<path d="M 8.0 59.599999999999994 L 40.4 59.599999999999994 L 40.4 92.0 L 30.799999999999997 92.0 L 30.799999999999997 69.2 L 8.0 69.2 L 8.0 59.599999999999994" style="fill:#FFF;" />
<path d="M 92.0 40.4 L 59.599999999999994 40.4 L 59.599999999999994 8.0 L 69.2 8.0 L 69.2 30.799999999999997 L 92.0 30.799999999999997 L 92.0 40.4" style="fill:#FFF;" />
</svg>
