<svg xmlns="http://www.w3.org/2000/svg" viewBox="0 0 100 100">
<path d="M 15 3 L 15 98 L 75 98 L 75 3 L 15 3 L 15 98" style="fill:rgba(0,0,0,0);stroke-width:3;stroke:#000;" />
<path d="M 35 15 L 45 3 L 55 15" style="fill:rgba(0,0,0,0);stroke-width:2;stroke:#000;" />
<path d="M 45 20 L 45 3" style="fill:rgba(0,0,0,0);stroke-width:2;stroke:#000;" />
<path d="M 30 42.5 A 15,15 0 0,1 60,42.5 L 60 57.5 A 15,15 0 0,1 30,57.5 L 30 42.5" style="fill:rgba(0,0,0,0);stroke-width:3;stroke:#000;" />
<path d="M 15 98 L 75 3" style="fill:rgba(0,0,0,0);stroke-width:3;stroke:#000;" />
<path d="M 75 98 L 15 3" style="fill:rgba(0,0,0,0);stroke-width:3;stroke:#000;" />
<circle cx="45" cy="50" r="8" style="fill:#000;" />
<path d="M 15 80 C 22,80 18,90 25,90 C 32,90 28,80 35,80 C 42,80 38,90 45,90 C 52,90 48,80 55,80 C 62,80 58,90 65,90 C 72,90 68,80 75,80" style="fill:rgba(0,0,0,0);stroke-width:3;stroke:#000;" />
</svg>
