<svg xmlns="http://www.w3.org/2000/svg" viewBox="0 0 100 100">
<path d="M 14.25 34.6 L 34.6 14.25 L 65.4 14.25 L 85.75000000000001 34.6 L 85.75000000000001 65.4 L 65.4 85.75000000000001 L 34.6 85.75000000000001 L 14.25 65.4 L 14.25 34.6" style="fill:#D00;" />
<path d="M 43.400000000000006 14.25 L 56.60000000000001 14.25 L 56.60000000000001 43.400000000000006 L 85.75000000000001 43.400000000000006 L 85.75000000000001 56.60000000000001 L 56.60000000000001 56.60000000000001 L 56.60000000000001 85.75000000000001 L 43.400000000000006 85.75000000000001 L 43.400000000000006 56.60000000000001 L 14.25 56.60000000000001 L 14.25 43.400000000000006 L 43.400000000000006 43.400000000000006 L 43.400000000000006 14.25" style="fill:#272;" />
<path d="M 14.25 43.400000000000006 L 43.400000000000006 43.400000000000006 L 43.400000000000006 14.25 L 34.6 14.25 L 34.6 34.6 L 14.25 34.6 L 14.25 43.400000000000006" style="fill:#FFF;" />
<path d="M 85.75000000000001 56.60000000000001 L 56.60000000000001 56.60000000000001 L 56.60000000000001 85.75000000000001 L 65.4 85.75000000000001 L 65.4 65.4 L 85.75000000000001 65.4 L 85.75000000000001 56.60000000000001" style="fill:#FFF;" />
<path d="M 14.25 56.60000000000001 L 43.400000000000006 56.60000000000001 L 43.400000000000006 85.75000000000001 L 34.6 85.75000000000001 L 34.6 65.4 L 14.25 65.4 L 14.25 56.60000000000001" style="fill:#FFF;" />
<path d="M 85.75000000000001 43.400000000000006 L 56.60000000000001 43.400000000000006 L 56.60000000000001 14.25 L 65.4 14.25 L 65.4 34.6 L 85.75000000000001 34.6 L 85.75000000000001 43.400000000000006" style="fill:#FFF;" />
</svg>
