<svg xmlns="http://www.w3.org/2000/svg" viewBox="0 0 100 100">
<path d="M 72 50 L 80 42 L 58 42 L 58 20 L 50 28 L 42 20 L 42 42 L 20 42 L 28 50 L 20 58 L 42 58 L 42 80 L 50 72 L 58 80 L 58 58 L 80 58 L 72 50 L 80 42" style="fill:rgba(0,0,0,0);stroke-width:8;stroke:#007;" />
<path d="M 72 50 L 80 42 L 58 42 L 58 20 L 50 28 L 42 20 L 42 42 L 20 42 L 28 50 L 20 58 L 42 58 L 42 80 L 50 72 L 58 80 L 58 58 L 80 58 L 72 50 L 80 42" style="fill:#ED0;" />
<circle cx="50" cy="50" r="8" style="fill:#D00;" />
</svg>
