<svg xmlns="http://www.w3.org/2000/svg" viewBox="0 0 100 100">
<path d="M 43 12 L 57 12 A 100 100 1 0 0 54.5 33.0 L 54.5 88 L 45.5 88 L 45.5 33.0 A 100 100 1 0 0 43 12" style="fill:#000;" />
<path d="M 25 30.5 A 100 100 1 0 0 45.5 33.0 L 54.5 33.0 A 100 100 1 0 0 75 30.5 L 75 44.5 A 100 100 1 0 0 54.5 42.0 L 45.5 42.0 A 100 100 1 0 0 25 44.5 L 25 30.5" style="fill:#000;" />
<path d="M 20 53 A 100 100 1 0 0 45.5 55.5 L 54.5 55.5 A 100 100 1 0 0 80 53 L 80 67 A 100 100 1 0 0 54.5 64.5 L 45.5 64.5 A 100 100 1 0 0 20 67 L 20 53" style="fill:#000;" />
</svg>
