<svg xmlns="http://www.w3.org/2000/svg" viewBox="0 0 200 200">
<path d="M 65 35 L 75 25 A 15,15 0 0,1 85,20 L 115 20 A 15,15 0 0,1 125,25 L 135 35 L 135 165 L 125 175 A 15,15 0 0,1 115,180 L 85 180 A 15,15 0 0,1 75,175 L 65 165 L 65 35 L 75 25" style="fill:rgba(0,0,0,0);stroke-width:4.5;stroke:#000;" />
<path d="M 100 55 L 100 30" style="fill:rgba(0,0,0,0);stroke-width:3;stroke:#000;" />
<path d="M 85 45 L 100 30 L 115 45" style="fill:rgba(0,0,0,0);stroke-width:3;stroke:#000;" />
<path d="M 135 20 L 160 20 L 160 180 L 135 180 L 135 20 L 160 20" style="fill:rgba(0,0,0,0);stroke-width:4.5;stroke:#000;" />
<path d="M 65 20 L 40 20 L 40 180 L 65 180 L 65 20 L 40 20" style="fill:rgba(0,0,0,0);stroke-width:4.5;stroke:#000;" />
<path d="M 40 28.75 L 65 28.75" style="fill:rgba(0,0,0,0);stroke-width:3;stroke:#000;" />
<path d="M 135 28.75 L 160 28.75" style="fill:rgba(0,0,0,0);stroke-width:3;stroke:#000;" />
<path d="M 40 43.0 L 65 43.0" style="fill:rgba(0,0,0,0);stroke-width:3;stroke:#000;" />
<path d="M 135 43.0 L 160 43.0" style="fill:rgba(0,0,0,0);stroke-width:3;stroke:#000;" />
<path d="M 40 57.25 L 65 57.25" style="fill:rgba(0,0,0,0);stroke-width:3;stroke:#000;" />
<path d="M 135 57.25 L 160 57.25" style="fill:rgba(0,0,0,0);stroke-width:3;stroke:#000;" />
<path d="M 40 71.5 L 65 71.5" style="fill:rgba(0,0,0,0);stroke-width:3;stroke:#000;" />
<path d="M 135 71.5 L 160 71.5" style="fill:rgba(0,0,0,0);stroke-width:3;stroke:#000;" />
<path d="M 40 85.75 L 65 85.75" style="fill:rgba(0,0,0,0);stroke-width:3;stroke:#000;" />
<path d="M 135 85.75 L 160 85.75" style="fill:rgba(0,0,0,0);stroke-width:3;stroke:#000;" />
<path d="M 40 100.0 L 65 100.0" style="fill:rgba(0,0,0,0);stroke-width:3;stroke:#000;" />
<path d="M 135 100.0 L 160 100.0" style="fill:rgba(0,0,0,0);stroke-width:3;stroke:#000;" />
<path d="M 40 114.25 L 65 114.25" style="fill:rgba(0,0,0,0);stroke-width:3;stroke:#000;" />
<path d="M 135 114.25 L 160 114.25" style="fill:rgba(0,0,0,0);stroke-width:3;stroke:#000;" />
<path d="M 40 128.5 L 65 128.5" style="fill:rgba(0,0,0,0);stroke-width:3;stroke:#000;" />
<path d="M 135 128.5 L 160 128.5" style="fill:rgba(0,0,0,0);stroke-width:3;stroke:#000;" />
<path d="M 40 142.75 L 65 142.75" style="fill:rgba(0,0,0,0);stroke-width:3;stroke:#000;" />
<path d="M 135 142.75 L 160 142.75" style="fill:rgba(0,0,0,0);stroke-width:3;stroke:#000;" />
<path d="M 40 157.0 L 65 157.0" style="fill:rgba(0,0,0,0);stroke-width:3;stroke:#000;" />
<path d="M 135 157.0 L 160 157.0" style="fill:rgba(0,0,0,0);stroke-width:3;stroke:#000;" />
<path d="M 40 171.25 L 65 171.25" style="fill:rgba(0,0,0,0);stroke-width:3;stroke:#000;" />
<path d="M 135 171.25 L 160 171.25" style="fill:rgba(0,0,0,0);stroke-width:3;stroke:#000;" />
</svg>
