<svg xmlns="http://www.w3.org/2000/svg" viewBox="0 0 100 100">
<circle cx="50" cy="50" r="45" style="fill:#070;" />
<path d="M 31.252614073274028 81.20088974555689 A 36.4 36.4 1 0 0 68.74738592672597 81.20088974555689L 65.63218157918969 76.53817814159899 A 30.800000000000004 30.800000000000004 1 0 1 34.36781842081031 76.53817814159899" stroke="#000" stroke-width="0" fill="#FFF" />
<path d="M 83.50637666566882 35.77738692299044 A 36.4 36.4 1 0 0 53.17246903601476 13.73851298946046L 52.9520491776229 19.34179709029089 A 30.800000000000004 30.800000000000004 1 0 1 78.24545029106181 37.71852867710242" stroke="#000" stroke-width="0" fill="#FFF" />
<path d="M 14.53292964181744 41.811781621883306 A 36.4 36.4 1 0 0 26.11945134474553 77.47142872010889L 29.591302514955274 73.06783620030126 A 30.800000000000004 30.800000000000004 1 0 1 19.93008298070605 43.333659890706436" stroke="#000" stroke-width="0" fill="#FFF" />
<path d="M 73.88054865525446 77.47142872010892 A 36.4 36.4 1 0 0 85.46707035818255 41.81178162188332L 80.06991701929394 43.33365989070642 A 30.800000000000004 30.800000000000004 1 0 1 70.40869748504471 73.06783620030127" stroke="#000" stroke-width="0" fill="#FFF" />
<path d="M 46.82753096398526 13.73851298946046 A 36.4 36.4 1 0 0 16.493623334331176 35.777386922990424L 21.754549708938175 37.71852867710243 A 30.800000000000004 30.800000000000004 1 0 1 47.04795082237713 19.34179709029089" stroke="#000" stroke-width="0" fill="#FFF" />
<path d="M 50.0 22.0 L 33.542012935810746 72.65247584249852 L 76.6295824562643 41.34752415750148 L 23.3704175437357 41.34752415750147 L 66.45798706418924 72.65247584249853 L 50.000000000000014 22.0 L 33.54201293581074 72.65247584249852" style="fill:#FFF;" />
</svg>
