<svg xmlns="http://www.w3.org/2000/svg" viewBox="0 0 200 200">
<path d="M 60 40 A 20,20 0 0,1 80,20 L 120 20 A 20,20 0 0,1 140,40 L 140 160 A 20,20 0 0,1 120,180 L 80 180 A 20,20 0 0,1 60,160 L 60 40 A 20,20 0 0,1 80,20" style="fill:rgba(0,0,0,0);stroke-width:4.5;stroke:#000;" />
<path d="M 100 55 L 100 30" style="fill:rgba(0,0,0,0);stroke-width:3;stroke:#000;" />
<path d="M 85 45 L 100 30 L 115 45" style="fill:rgba(0,0,0,0);stroke-width:3;stroke:#000;" />
<path d="M 60 38 A 8,8 0 0,0 52,46 L 52 62 A 8,8 0 0,0 60,70" style="fill:#000;" />
<path d="M 140 38 A 8,8 0 0,1 148,46 L 148 62 A 8,8 0 0,1 140,70" style="fill:#000;" />
<path d="M 60 96 A 8,8 0 0,0 52,104 L 52 120 A 8,8 0 0,0 60,128" style="fill:#000;" />
<path d="M 140 96 A 8,8 0 0,1 148,104 L 148 120 A 8,8 0 0,1 140,128" style="fill:#000;" />
<path d="M 60 130 A 8,8 0 0,0 52,138 L 52 154 A 8,8 0 0,0 60,162" style="fill:#000;" />
<path d="M 140 130 A 8,8 0 0,1 148,138 L 148 154 A 8,8 0 0,1 140,162" style="fill:#000;" />
</svg>
