<svg xmlns="http://www.w3.org/2000/svg" viewBox="0 0 100 100">
<path d="M 14 90 A 40,40 0 0,0 65,50 A 25,40 0 0,0 35,10 A 25,40 0 0,0 15,50 A 30,40 0 0,0 75,50 A 25,40 0 0,0 45,10 A 25,40 0 0,0 25,50 A 30,40 0 0,0 85,50 A 25,40 0 0,0 55,10 A 25,40 0 0,0 35,50 A 40,40 0 0,0 86,90" style="fill:rgba(0,0,0,0);stroke-width:3;stroke:#000;" />
<path d="M 14 90 A 40,40 0 0,0 65,50 A 25,40 0 0,0 35,10 A 25,40 0 0,0 15,50 A 30,40 0 0,0 75,50 A 25,40 0 0,0 45,10 A 25,40 0 0,0 25,50 A 30,40 0 0,0 85,50 A 25,40 0 0,0 55,10 A 25,40 0 0,0 35,50 A 40,40 0 0,0 86,90" style="fill:rgba(0,0,0,0);stroke-width:6;stroke:#000;" stroke-dasharray="3 6" />
</svg>
