<svg xmlns="http://www.w3.org/2000/svg" viewBox="0 0 100 100">
<circle cx="50" cy="50" r="36" style="fill:#D00;" />
<circle cx="50" cy="50" r="30.5" style="fill:#FFF;" />
<circle cx="50" cy="50" r="25" style="fill:#007;" />
<path d="M 56.35903117079846 60.17657715387711 A 12 12 1 0 0 60.17657715387711 56.35903117079846 L 88.63703305156272 60.35276180410083 A 40 40 1 0 0 88.63703305156272 39.64723819589916 L 60.17657715387711 43.64096882920154 A 12 12 1 0 0 56.35903117079846 39.82342284612289 L 60.35276180410084 11.362966948437276 A 40 40 1 0 0 39.647238195899185 11.362966948437261 L 43.64096882920154 39.82342284612289 A 12 12 1 0 0 39.82342284612289 43.64096882920154 L 11.362966948437268 39.64723819589918 A 40 40 1 0 0 11.362966948437261 60.35276180410081 L 39.82342284612289 56.35903117079846 A 12 12 1 0 0 43.64096882920154 60.17657715387711 L 39.64723819589917 88.63703305156272 A 40 40 1 0 0 60.352761804100844 88.63703305156272 L 56.359031170798445 60.17657715387712 A 12 12 1 0 0 60.17657715387712 56.35903117079845" style="fill:#FFF;" />
<path d="M 56.35903117079846 60.17657715387711 A 12 12 1 0 0 60.17657715387711 56.35903117079846 L 88.63703305156272 60.35276180410083 A 40 40 1 0 0 88.63703305156272 39.64723819589916 L 60.17657715387711 43.64096882920154 A 12 12 1 0 0 56.35903117079846 39.82342284612289 L 60.35276180410084 11.362966948437276 A 40 40 1 0 0 39.647238195899185 11.362966948437261 L 43.64096882920154 39.82342284612289 A 12 12 1 0 0 39.82342284612289 43.64096882920154 L 11.362966948437268 39.64723819589918 A 40 40 1 0 0 11.362966948437261 60.35276180410081 L 39.82342284612289 56.35903117079846 A 12 12 1 0 0 43.64096882920154 60.17657715387711 L 39.64723819589917 88.63703305156272 A 40 40 1 0 0 60.352761804100844 88.63703305156272 L 56.359031170798445 60.17657715387712 A 12 12 1 0 0 60.17657715387712 56.35903117079845" style="fill:rgba(0,0,0,0);stroke-width:2;stroke:#007;" />
</svg>
